<?xml version="1.0" standalone="no"?>
<!DOCTYPE svg PUBLIC "-//W3C//DTD SVG 20010904//EN"
 "http://www.w3.org/TR/2001/REC-SVG-20010904/DTD/svg10.dtd">
<svg version="1.0" xmlns="http://www.w3.org/2000/svg"
 width="290.000000pt" height="290.000000pt" viewBox="0 0 290.000000 290.000000"
 preserveAspectRatio="xMidYMid meet">
<metadata>
Created by potrace 1.11, written by Peter Selinger 2001-2013
</metadata>
<g transform="translate(0.000000,290.000000) scale(0.100000,-0.100000)"
fill="#000000" stroke="none">
<path d="M2601 2760 c-113 -129 -139 -152 -161 -140 -10 6 -23 10 -27 9 -4 -1
-21 -1 -36 0 -20 1 -26 5 -21 14 6 9 5 9 -8 0 -8 -7 -18 -10 -21 -7 -4 4 -26
9 -49 11 -103 9 -123 11 -123 13 0 3 -41 7 -135 15 -102 8 -500 12 -500 5 0
-3 -33 -7 -73 -8 -72 -4 -120 -8 -124 -12 -2 -2 -16 -4 -33 -5 -16 -1 -31 -4
-32 -5 -2 -1 -14 -4 -28 -5 -14 -1 -32 -5 -40 -8 -22 -8 -73 -20 -90 -21 -8
-1 -19 -4 -25 -7 -5 -4 -26 -10 -45 -14 -19 -4 -39 -10 -45 -14 -5 -3 -12 -6
-15 -7 -3 -1 -15 -5 -27 -9 -12 -4 -25 -6 -29 -5 -4 1 -10 -2 -13 -7 -6 -9
-121 -66 -134 -67 -4 -1 -11 -5 -15 -11 -4 -5 -19 -17 -34 -25 -78 -44 -196
-160 -259 -256 -30 -45 -73 -125 -74 -137 0 -4 -7 -12 -15 -17 -8 -5 -11 -10
-6 -10 5 0 2 -7 -5 -17 -8 -9 -13 -19 -13 -22 1 -3 -3 -17 -9 -31 -9 -23 -13
-34 -20 -65 -1 -5 -5 -14 -8 -20 -4 -5 -10 -23 -14 -40 -5 -16 -9 -34 -11 -40
-2 -5 -5 -20 -8 -33 -3 -12 -7 -26 -11 -31 -3 -5 -7 -22 -9 -38 -3 -15 -8 -41
-12 -58 -4 -16 -7 -42 -8 -57 0 -16 -5 -28 -9 -28 -5 0 -6 -3 -3 -8 2 -4 1
-28 -4 -52 -13 -73 -31 -267 -34 -380 -1 -41 -5 -81 -9 -88 -5 -6 -4 -12 1
-12 5 0 6 -17 2 -40 -4 -22 -4 -40 0 -40 9 0 8 -20 -3 -36 -3 -6 -3 -14 0 -18
4 -4 8 -46 10 -94 2 -99 9 -207 19 -302 3 -36 7 -85 8 -110 1 -25 5 -50 8 -55
3 -6 6 -26 7 -45 0 -19 3 -46 6 -60 3 -14 8 -45 11 -70 3 -25 8 -47 11 -50 3
-3 18 10 34 29 16 19 31 32 34 29 8 -8 16 -49 16 -80 0 -15 4 -30 9 -33 5 -3
7 -12 3 -20 -10 -28 14 -15 51 28 21 23 60 67 88 98 l50 56 46 -9 c26 -4 63
-10 82 -13 19 -3 51 -7 70 -10 19 -3 55 -7 80 -10 25 -3 61 -7 80 -10 104 -16
573 -28 595 -15 6 3 35 5 65 6 31 0 60 3 65 6 6 3 37 8 70 12 33 4 107 18 165
31 139 33 138 33 153 42 6 4 18 8 25 9 8 2 21 6 30 10 9 4 19 8 22 9 55 19
200 95 226 120 7 5 24 19 40 30 58 41 195 191 186 203 -2 2 7 12 19 23 12 10
19 19 15 19 -4 0 1 12 12 27 21 31 65 124 92 193 9 25 20 54 25 65 4 11 9 25
10 30 1 6 3 12 4 15 2 3 5 18 7 35 3 16 9 32 12 35 4 3 7 12 7 20 -1 8 2 24 6
36 4 11 10 34 13 50 2 16 7 40 10 54 6 26 16 90 21 130 2 14 7 48 10 75 4 28
8 73 9 100 1 28 6 56 10 63 4 7 2 12 -6 12 -8 0 -9 3 -3 8 6 4 10 17 9 30 -1
12 2 22 6 22 7 0 7 22 0 40 -1 3 -1 10 0 15 7 25 5 293 -2 313 -5 15 -4 21 2
17 12 -8 13 -3 0 29 -7 18 -6 26 1 26 8 0 7 5 -1 15 -7 8 -10 22 -6 30 3 8 2
15 -2 15 -4 0 -8 48 -10 107 -2 69 -8 110 -15 115 -9 6 -9 8 1 8 7 0 10 5 6
11 -7 11 -15 92 -18 166 0 24 -4 43 -7 43 -4 0 -7 16 -7 36 0 20 -5 40 -12 44
-9 6 -9 9 1 13 11 4 10 8 -3 23 -10 10 -18 14 -18 9 0 -6 -14 -26 -31 -45 -16
-19 -29 -30 -28 -25 1 6 1 12 -1 15 -2 6 -7 40 -13 98 -3 24 -7 46 -10 48 -2
2 -27 -23 -56 -56z m-490 -865 c1 -50 0 -155 -1 -157 -2 -2 -4 -28 -5 -58 -5
-97 -17 -188 -26 -205 -3 -5 -6 -23 -7 -39 -1 -16 -7 -35 -13 -42 -6 -8 -9
-14 -6 -14 14 0 -42 -135 -81 -195 -32 -49 -82 -109 -82 -98 0 4 -7 -3 -16
-15 -8 -12 -22 -22 -30 -22 -8 0 -14 -4 -14 -9 0 -10 -127 -68 -164 -75 -14
-3 -30 -7 -35 -10 -5 -4 -22 -8 -38 -10 -15 -3 -40 -7 -55 -10 -22 -5 -150
-16 -193 -17 -40 -1 -290 17 -290 21 0 1 -20 4 -44 6 -35 3 -48 -1 -63 -18
-10 -11 -18 -25 -18 -30 0 -4 -7 -8 -14 -8 -11 0 -14 10 -12 40 2 22 0 40 -4
40 -4 0 -7 7 -7 15 0 8 5 12 10 8 5 -3 6 4 1 18 -4 13 -6 29 -6 34 3 15 14
157 15 188 1 15 4 27 8 27 4 0 5 9 2 20 -3 11 0 27 7 35 10 12 10 15 0 15 -9
0 -9 4 -3 13 6 6 13 23 16 37 5 24 15 64 21 85 2 6 8 24 15 40 30 74 45 105
53 105 4 0 8 7 8 15 0 8 5 15 12 15 6 0 9 3 6 6 -9 8 83 104 99 104 7 0 13 4
13 10 0 20 200 106 214 93 3 -4 6 -2 6 3 0 6 12 10 28 10 35 1 55 7 64 19 5 6
8 5 8 -3 0 -8 5 -10 13 -5 17 11 328 13 350 1 10 -5 17 -5 17 1 0 5 8 8 18 6
9 -2 17 -4 17 -5 0 -1 14 -4 30 -6 80 -10 93 -12 104 -18 6 -4 11 -1 11 8 0 8
9 20 20 26 11 6 18 15 15 21 -4 5 1 9 9 9 10 0 16 -9 17 -25z"/>
</g>
</svg>
